<svg width="60" height="23" viewBox="0 0 60 23" fill="none" xmlns="http://www.w3.org/2000/svg">
<rect width="60" height="23" rx="8" fill="#5E6366" fill-opacity="0.08"/>
<path d="M14.9716 7.27273V16H13.9148V8.38068H13.8636L11.733 9.79545V8.72159L13.9148 7.27273H14.9716ZM20.3281 16.1193C19.6861 16.1193 19.1392 15.9446 18.6875 15.5952C18.2358 15.2429 17.8906 14.733 17.652 14.0653C17.4134 13.3949 17.294 12.5852 17.294 11.6364C17.294 10.6932 17.4134 9.88778 17.652 9.22017C17.8935 8.54972 18.2401 8.03835 18.6918 7.68608C19.1463 7.33097 19.6918 7.15341 20.3281 7.15341C20.9645 7.15341 21.5085 7.33097 21.9602 7.68608C22.4148 8.03835 22.7614 8.54972 23 9.22017C23.2415 9.88778 23.3622 10.6932 23.3622 11.6364C23.3622 12.5852 23.2429 13.3949 23.0043 14.0653C22.7656 14.733 22.4205 15.2429 21.9688 15.5952C21.517 15.9446 20.9702 16.1193 20.3281 16.1193ZM20.3281 15.1818C20.9645 15.1818 21.4588 14.875 21.8111 14.2614C22.1634 13.6477 22.3395 12.7727 22.3395 11.6364C22.3395 10.8807 22.2585 10.2372 22.0966 9.70597C21.9375 9.17472 21.7074 8.76989 21.4062 8.49148C21.108 8.21307 20.7486 8.07386 20.3281 8.07386C19.6974 8.07386 19.2045 8.38494 18.8494 9.0071C18.4943 9.62642 18.3168 10.5028 18.3168 11.6364C18.3168 12.392 18.3963 13.0341 18.5554 13.5625C18.7145 14.0909 18.9432 14.4929 19.2415 14.7685C19.5426 15.044 19.9048 15.1818 20.3281 15.1818Z" fill="#8B8D97"/>
<path d="M37 9.5L41 13.5L45 9.5" stroke="#8B8D97" stroke-width="2" stroke-linecap="round" stroke-linejoin="round"/>
</svg>
