<svg width="52" height="52" viewBox="0 0 52 52" fill="none" xmlns="http://www.w3.org/2000/svg">
<path d="M21.9973 12.0369C22.1077 12.2615 22.1805 12.502 22.2132 12.7493L22.8165 21.7191L23.1159 26.2276C23.119 26.6912 23.1917 27.1519 23.3318 27.5947C23.6935 28.4538 24.5635 28.9998 25.5101 28.9618L39.9342 28.0183C40.5588 28.008 41.162 28.2416 41.611 28.6677C41.9852 29.0228 42.2268 29.4873 42.3029 29.9869L42.3284 30.2903C41.7316 38.5555 35.6612 45.4493 27.4131 47.2289C19.165 49.0085 10.707 45.2492 6.63121 37.9922C5.45618 35.8839 4.72225 33.5665 4.4725 31.176C4.36817 30.4684 4.32223 29.7537 4.33513 29.0388C4.32225 20.1775 10.6325 12.5167 19.4657 10.6698C20.5289 10.5043 21.5711 11.0671 21.9973 12.0369Z" fill="#97A5EB"/>
<path opacity="0.4" d="M27.8846 4.33527C37.7643 4.58662 46.0679 11.691 47.6662 21.2601L47.651 21.3307L47.6074 21.4334L47.6134 21.7153C47.5908 22.0887 47.4466 22.448 47.1982 22.7382C46.9393 23.0405 46.5858 23.2464 46.1964 23.3263L45.9589 23.3589L29.3172 24.4371C28.7636 24.4917 28.2125 24.3132 27.8008 23.9461C27.4578 23.6401 27.2385 23.227 27.1765 22.782L26.0595 6.16446C26.0401 6.10827 26.0401 6.04736 26.0595 5.99117C26.0748 5.53312 26.2764 5.10015 26.6193 4.78899C26.9623 4.47784 27.418 4.31443 27.8846 4.33527Z" fill="#FFCC91"/>
</svg>
